<svg width="60" height="52" viewBox="0 0 60 52" fill="none" xmlns="http://www.w3.org/2000/svg">
<path d="M16.55 23.1915C20.15 29.2742 25.95 34.2392 33.025 37.3557L38.525 32.6272C39.2 32.0468 40.2 31.8534 41.075 32.1113C43.875 32.9066 46.9 33.3364 50 33.3364C51.375 33.3364 52.5 34.3036 52.5 35.4858V42.987C52.5 44.1692 51.375 45.1364 50 45.1364C26.525 45.1364 7.5 28.7798 7.5 8.59741C7.5 7.41527 8.625 6.44806 10 6.44806H18.75C20.125 6.44806 21.25 7.41527 21.25 8.59741C21.25 11.2841 21.75 13.8633 22.675 16.2706C22.95 17.0229 22.75 17.8611 22.05 18.4629L16.55 23.1915Z" fill="#37ECCB"/>
</svg>
