<svg width="300" height="300" viewBox="0 0 300 300" fill="none" xmlns="http://www.w3.org/2000/svg">
<path fill-rule="evenodd" clip-rule="evenodd" d="M145.871 35.9024C142.726 35.1768 139.588 37.1338 138.86 40.2786C138.132 43.4234 140.094 46.5637 143.239 47.2915C157.777 50.6515 171.066 58.033 181.666 68.6325C212.828 99.7948 212.828 150.504 181.666 181.666C150.504 212.83 99.7948 212.83 68.6325 181.666C37.468 150.504 37.468 99.7948 68.6325 68.6325C77.5795 59.6855 88.1676 53.1601 100.104 49.2325C103.169 48.2254 104.837 44.9226 103.83 41.8556C102.821 38.7886 99.5156 37.12 96.4508 38.1294C82.7591 42.6315 70.6192 50.1137 60.3676 60.3676C24.646 96.0892 24.646 154.211 60.3676 189.933C78.2273 207.793 101.688 216.724 125.15 216.724C148.611 216.721 172.071 207.793 189.933 189.933C225.652 154.211 225.652 96.0892 189.933 60.3676C177.782 48.2185 162.547 39.7568 145.871 35.9024V35.9024Z" fill="#37ECCB"/>
<path fill-rule="evenodd" clip-rule="evenodd" d="M292.039 253.539L230.791 192.29C262.198 143.04 255.32 78.3348 213.643 36.6554C190.006 13.0188 158.578 0 125.15 0C91.7198 0 60.2921 13.0188 36.6554 36.6554C13.0165 60.2921 0 91.7198 0 125.15C0 158.578 13.0165 190.006 36.6554 213.643C60.2921 237.28 91.7175 250.296 125.146 250.296C149.137 250.296 172.247 243.567 192.29 230.791L253.539 292.039C258.664 297.166 265.501 299.989 272.791 299.989C280.078 299.989 286.915 297.166 292.042 292.039C302.653 281.424 302.653 264.155 292.039 253.539V253.539ZM283.775 283.775C280.856 286.691 276.956 288.297 272.791 288.297C268.623 288.297 264.722 286.691 261.804 283.775L197.173 219.143C196.042 218.01 194.545 217.431 193.039 217.431C191.881 217.431 190.718 217.772 189.709 218.472C170.718 231.644 148.391 238.607 125.146 238.607C94.8395 238.607 66.3483 226.806 44.9203 205.378C0.682068 161.14 0.682068 89.1586 44.9203 44.9203C66.3506 23.4901 94.8418 11.689 125.15 11.689C155.457 11.689 183.948 23.4901 205.378 44.9203C244.215 83.7593 249.724 144.651 218.472 189.709C216.861 192.032 217.142 195.172 219.143 197.173L283.775 261.804C289.831 267.86 289.831 277.716 283.775 283.775V283.775Z" fill="#37ECCB"/>
<path fill-rule="evenodd" clip-rule="evenodd" d="M160.432 89.8659C158.15 87.5839 154.452 87.5839 152.168 89.8659L125.15 116.883L98.1308 89.8659C95.8489 87.5839 92.1478 87.5839 89.8659 89.8659C87.5839 92.1478 87.5839 95.8489 89.8659 98.1308L116.883 125.15L89.8659 152.168C87.5839 154.449 87.5839 158.15 89.8659 160.432C91.0057 161.575 92.5026 162.144 93.9972 162.144C95.4941 162.144 96.9887 161.575 98.1308 160.432L125.148 133.415L152.165 160.432C153.307 161.575 154.804 162.144 156.299 162.144C157.796 162.144 159.29 161.575 160.432 160.432C162.714 158.15 162.714 154.449 160.432 152.168L133.413 125.15L160.432 98.1308C162.714 95.8489 162.714 92.1478 160.432 89.8659V89.8659Z" fill="#37ECCB"/>
<path fill-rule="evenodd" clip-rule="evenodd" d="M121.275 45.3095C124.493 45.3095 127.119 42.6842 127.119 39.4638C127.119 36.2458 124.493 33.6205 121.275 33.6205C118.055 33.6205 115.43 36.2458 115.43 39.4638C115.43 42.6842 118.055 45.3095 121.275 45.3095Z" fill="#37ECCB"/>
</svg>
