<svg id="svg" version="1.1" xmlns="http://www.w3.org/2000/svg" xmlns:xlink="http://www.w3.org/1999/xlink" width="400" height="500" viewBox="0, 0, 400,500"><g id="svgg"><path id="path0" d="M192.500 56.353 C 97.843 59.755,17.977 130.109,2.837 223.427 C -16.957 345.429,76.528 455.651,199.833 455.693 C 333.814 455.738,429.254 327.719,391.450 198.667 C 367.976 118.533,292.159 59.145,209.949 56.496 C 206.952 56.399,203.300 56.274,201.833 56.217 C 200.367 56.160,196.167 56.221,192.500 56.353 M218.833 76.791 C 249.452 80.356,276.593 90.241,300.667 106.595 C 406.170 178.266,406.601 332.353,301.500 404.831 C 293.802 410.139,276.709 419.647,272.750 420.822 L 272.000 421.045 272.000 273.601 L 272.000 126.157 268.417 126.392 C 246.781 127.807,228.623 144.354,224.771 166.167 C 224.218 169.299,224.182 175.072,224.175 261.712 L 224.167 353.924 225.856 354.098 C 229.397 354.464,232.785 356.878,234.691 360.393 L 235.833 362.500 235.923 397.540 L 236.012 432.580 233.089 433.112 C 228.775 433.899,223.741 434.632,218.667 435.215 C 213.744 435.780,192.955 436.238,189.851 435.850 L 188.000 435.619 188.000 358.643 L 188.000 281.667 189.613 281.667 C 200.158 281.667,210.463 271.641,211.668 260.212 C 212.085 256.251,212.098 132.656,211.681 130.859 C 210.269 124.770,201.731 124.770,200.319 130.859 C 200.144 131.615,200.013 155.264,200.008 186.955 L 200.000 241.743 199.254 243.071 C 197.073 246.950,190.938 247.002,188.762 243.160 L 188.011 241.833 187.998 187.000 C 187.990 155.304,187.856 131.615,187.681 130.859 C 186.269 124.770,177.731 124.770,176.319 130.859 C 176.144 131.615,176.013 155.264,176.008 186.955 L 176.000 241.743 175.254 243.071 C 173.073 246.950,166.938 247.002,164.762 243.160 L 164.011 241.833 163.998 187.000 C 163.990 155.304,163.856 131.615,163.681 130.859 C 162.269 124.770,153.731 124.770,152.319 130.859 C 152.144 131.615,152.013 155.264,152.008 186.955 L 152.000 241.743 151.254 243.071 C 149.073 246.950,142.938 247.002,140.762 243.160 L 140.011 241.833 139.998 187.000 C 139.990 155.304,139.856 131.615,139.681 130.859 C 138.269 124.770,129.731 124.770,128.319 130.859 C 127.900 132.666,127.909 256.660,128.328 260.308 C 129.648 271.791,139.847 281.667,150.387 281.667 L 152.000 281.667 152.000 355.689 C 152.000 426.032,151.971 429.703,151.417 429.533 C 151.096 429.435,148.868 428.755,146.466 428.021 C 83.592 408.817,35.160 354.563,23.024 289.741 C 3.232 184.026,78.514 85.360,185.833 76.361 C 191.379 75.896,213.637 76.186,218.833 76.791 " stroke="none" fill="#34eccc" fill-rule="evenodd"></path><path id="path1" d="M189.576 56.241 C 190.168 56.314,191.218 56.315,191.909 56.243 C 192.601 56.171,192.117 56.111,190.833 56.109 C 189.550 56.108,188.984 56.167,189.576 56.241 M207.909 56.241 C 208.501 56.314,209.551 56.315,210.243 56.243 C 210.934 56.171,210.450 56.111,209.167 56.109 C 207.883 56.108,207.317 56.167,207.909 56.241 M184.421 56.573 C 184.928 56.649,185.678 56.647,186.088 56.568 C 186.498 56.489,186.083 56.426,185.167 56.429 C 184.250 56.431,183.915 56.496,184.421 56.573 M214.088 56.573 C 214.595 56.649,215.345 56.647,215.755 56.568 C 216.165 56.489,215.750 56.426,214.833 56.429 C 213.917 56.431,213.581 56.496,214.088 56.573 M180.587 56.902 C 181.002 56.982,181.602 56.979,181.921 56.896 C 182.239 56.812,181.900 56.747,181.167 56.751 C 180.433 56.754,180.173 56.823,180.587 56.902 M218.587 56.902 C 219.002 56.982,219.602 56.979,219.921 56.896 C 220.239 56.812,219.900 56.747,219.167 56.751 C 218.433 56.754,218.173 56.823,218.587 56.902 M121.333 71.833 C 120.875 72.095,120.650 72.310,120.833 72.310 C 121.017 72.310,121.542 72.095,122.000 71.833 C 122.458 71.571,122.683 71.357,122.500 71.357 C 122.317 71.357,121.792 71.571,121.333 71.833 M278.000 71.833 C 278.458 72.095,278.983 72.310,279.167 72.310 C 279.350 72.310,279.125 72.095,278.667 71.833 C 278.208 71.571,277.683 71.357,277.500 71.357 C 277.317 71.357,277.542 71.571,278.000 71.833 M118.333 73.167 C 117.875 73.429,117.650 73.643,117.833 73.643 C 118.017 73.643,118.542 73.429,119.000 73.167 C 119.458 72.905,119.683 72.690,119.500 72.690 C 119.317 72.690,118.792 72.905,118.333 73.167 M114.667 74.833 C 113.842 75.275,113.317 75.637,113.500 75.637 C 113.683 75.637,114.508 75.275,115.333 74.833 C 116.158 74.392,116.683 74.030,116.500 74.030 C 116.317 74.030,115.492 74.392,114.667 74.833 M284.333 74.667 C 284.975 75.018,285.650 75.305,285.833 75.305 C 286.017 75.305,285.642 75.018,285.000 74.667 C 284.358 74.315,283.683 74.028,283.500 74.028 C 283.317 74.028,283.692 74.315,284.333 74.667 M193.250 76.247 C 194.396 76.312,196.271 76.312,197.417 76.247 C 198.563 76.182,197.625 76.128,195.333 76.128 C 193.042 76.128,192.104 76.182,193.250 76.247 M202.583 76.247 C 203.729 76.312,205.604 76.312,206.750 76.247 C 207.896 76.182,206.958 76.128,204.667 76.128 C 202.375 76.128,201.438 76.182,202.583 76.247 M186.755 76.573 C 187.261 76.649,188.011 76.647,188.421 76.568 C 188.831 76.489,188.417 76.426,187.500 76.429 C 186.583 76.431,186.248 76.496,186.755 76.573 M211.755 76.573 C 212.261 76.649,213.011 76.647,213.421 76.568 C 213.831 76.489,213.417 76.426,212.500 76.429 C 211.583 76.431,211.248 76.496,211.755 76.573 M182.921 76.902 C 183.335 76.982,183.935 76.979,184.254 76.896 C 184.573 76.812,184.233 76.747,183.500 76.751 C 182.767 76.754,182.506 76.823,182.921 76.902 M215.921 76.902 C 216.335 76.982,216.935 76.979,217.254 76.896 C 217.573 76.812,217.233 76.747,216.500 76.751 C 215.767 76.754,215.506 76.823,215.921 76.902 M219.417 77.230 C 219.737 77.314,220.262 77.314,220.583 77.230 C 220.904 77.146,220.642 77.077,220.000 77.077 C 219.358 77.077,219.096 77.146,219.417 77.230 M106.250 79.021 C 105.196 79.565,104.333 80.085,104.333 80.177 C 104.333 80.268,105.233 79.889,106.333 79.333 C 107.433 78.778,108.333 78.251,108.333 78.162 C 108.333 77.940,108.395 77.914,106.250 79.021 M291.667 78.157 C 291.667 78.249,292.567 78.778,293.667 79.333 C 294.767 79.889,295.667 80.268,295.667 80.176 C 295.667 80.085,294.767 79.555,293.667 79.000 C 292.567 78.445,291.667 78.065,291.667 78.157 M102.583 81.023 C 101.896 81.386,101.333 81.757,101.333 81.848 C 101.333 81.939,101.933 81.707,102.667 81.333 C 103.400 80.959,104.000 80.581,104.000 80.493 C 104.000 80.275,103.998 80.276,102.583 81.023 M296.667 80.816 C 296.667 80.908,297.117 81.216,297.667 81.500 C 298.217 81.784,298.667 81.942,298.667 81.850 C 298.667 81.759,298.217 81.451,297.667 81.167 C 297.117 80.882,296.667 80.725,296.667 80.816 M99.917 82.524 C 98.671 83.200,98.746 83.482,100.000 82.833 C 100.550 82.549,101.000 82.245,101.000 82.158 C 101.000 81.944,100.964 81.956,99.917 82.524 M299.000 82.150 C 299.000 82.241,299.450 82.549,300.000 82.833 C 300.550 83.118,301.000 83.275,301.000 83.184 C 301.000 83.092,300.550 82.784,300.000 82.500 C 299.450 82.216,299.000 82.058,299.000 82.150 M145.500 84.333 C 145.080 84.514,145.018 84.620,145.333 84.620 C 145.608 84.620,146.133 84.491,146.500 84.333 C 146.920 84.153,146.982 84.047,146.667 84.047 C 146.392 84.047,145.867 84.176,145.500 84.333 M94.083 86.038 C 92.947 86.766,92.579 87.255,93.583 86.703 C 94.348 86.282,95.546 85.356,95.333 85.350 C 95.242 85.347,94.679 85.657,94.083 86.038 M305.167 85.839 C 305.533 86.138,306.133 86.529,306.500 86.709 L 307.167 87.037 306.500 86.494 C 306.133 86.195,305.533 85.804,305.167 85.624 L 304.500 85.297 305.167 85.839 M140.167 86.178 C 139.333 86.580,139.305 86.626,140.000 86.456 C 140.945 86.226,142.006 85.684,141.500 85.692 C 141.317 85.695,140.717 85.913,140.167 86.178 M89.247 89.172 C 87.461 90.366,86.000 91.420,86.000 91.514 C 86.000 91.679,91.849 87.868,92.483 87.289 C 93.272 86.569,92.249 87.165,89.247 89.172 M307.500 87.240 C 308.024 87.771,314.000 91.703,314.000 91.517 C 314.000 91.426,312.688 90.473,311.083 89.402 C 307.838 87.233,306.986 86.719,307.500 87.240 M129.000 90.500 C 128.542 90.762,128.317 90.976,128.500 90.976 C 128.683 90.976,129.208 90.762,129.667 90.500 C 130.125 90.238,130.350 90.024,130.167 90.024 C 129.983 90.024,129.458 90.238,129.000 90.500 M270.333 90.500 C 270.792 90.762,271.317 90.976,271.500 90.976 C 271.683 90.976,271.458 90.762,271.000 90.500 C 270.542 90.238,270.017 90.024,269.833 90.024 C 269.650 90.024,269.875 90.238,270.333 90.500 M272.667 91.500 C 273.125 91.762,273.650 91.976,273.833 91.976 C 274.017 91.976,273.792 91.762,273.333 91.500 C 272.875 91.238,272.350 91.024,272.167 91.024 C 271.983 91.024,272.208 91.238,272.667 91.500 M126.000 91.833 C 125.542 92.095,125.317 92.310,125.500 92.310 C 125.683 92.310,126.208 92.095,126.667 91.833 C 127.125 91.571,127.350 91.357,127.167 91.357 C 126.983 91.357,126.458 91.571,126.000 91.833 M83.714 92.980 C 82.732 93.690,81.757 94.462,81.548 94.694 C 81.129 95.157,84.536 92.826,85.321 92.111 C 86.215 91.298,85.521 91.673,83.714 92.980 M314.667 92.060 C 315.441 92.826,318.830 95.201,318.586 94.806 C 318.467 94.613,317.424 93.805,316.268 93.010 C 315.112 92.215,314.392 91.788,314.667 92.060 M119.583 94.853 C 117.246 96.037,115.333 97.080,115.333 97.172 C 115.333 97.321,123.967 93.110,124.306 92.795 C 124.832 92.307,123.251 92.996,119.583 94.853 M276.361 93.129 C 276.700 93.443,285.333 97.654,285.333 97.505 C 285.333 97.321,276.812 93.000,276.449 93.000 C 276.324 93.000,276.285 93.058,276.361 93.129 M75.500 99.214 C 65.288 107.395,55.034 117.279,48.042 125.681 C 45.976 128.164,46.942 127.155,53.446 120.036 C 59.029 113.926,66.698 106.717,73.293 101.379 C 79.118 96.665,79.880 96.023,79.667 96.015 C 79.575 96.012,77.700 97.452,75.500 99.214 M320.333 96.104 C 320.333 96.185,322.096 97.627,324.250 99.307 C 326.404 100.988,327.573 101.826,326.847 101.169 C 325.239 99.715,320.333 95.900,320.333 96.104 M112.917 98.356 C 112.229 98.719,111.667 99.090,111.667 99.181 C 111.667 99.272,112.267 99.041,113.000 98.667 C 113.733 98.293,114.333 97.914,114.333 97.827 C 114.333 97.609,114.331 97.609,112.917 98.356 M285.667 97.820 C 285.667 97.911,286.267 98.293,287.000 98.667 C 287.733 99.041,288.333 99.272,288.333 99.180 C 288.333 99.089,287.733 98.707,287.000 98.333 C 286.267 97.959,285.667 97.728,285.667 97.820 M110.250 99.857 C 109.004 100.533,109.080 100.815,110.333 100.167 C 110.883 99.882,111.333 99.578,111.333 99.491 C 111.333 99.277,111.298 99.289,110.250 99.857 M288.667 99.483 C 288.667 99.575,289.117 99.882,289.667 100.167 C 290.217 100.451,290.667 100.609,290.667 100.517 C 290.667 100.425,290.217 100.118,289.667 99.833 C 289.117 99.549,288.667 99.391,288.667 99.483 M328.333 102.409 C 328.333 102.487,330.754 104.714,333.713 107.358 C 336.672 110.003,341.422 114.567,344.269 117.500 C 347.301 120.624,348.051 121.315,346.080 119.167 C 340.958 113.585,328.333 101.664,328.333 102.409 M104.417 103.372 C 103.280 104.099,102.913 104.588,103.917 104.036 C 104.681 103.616,105.880 102.689,105.667 102.683 C 105.575 102.680,105.013 102.990,104.417 103.372 M294.833 103.173 C 295.200 103.471,295.800 103.863,296.167 104.043 L 296.833 104.370 296.167 103.827 C 295.800 103.529,295.200 103.137,294.833 102.957 L 294.167 102.630 294.833 103.173 M298.000 105.104 C 298.000 105.181,298.637 105.665,299.417 106.179 C 300.196 106.693,300.657 106.900,300.442 106.640 C 300.029 106.139,298.000 104.863,298.000 105.104 M96.048 108.980 C 95.065 109.690,94.090 110.462,93.881 110.694 C 93.463 111.157,96.869 108.826,97.655 108.111 C 98.548 107.298,97.854 107.673,96.048 108.980 M302.333 108.060 C 303.107 108.826,306.497 111.201,306.253 110.806 C 306.134 110.613,305.090 109.805,303.935 109.010 C 302.779 108.215,302.058 107.788,302.333 108.060 M91.987 112.024 L 90.833 113.048 92.083 112.151 C 93.188 111.359,93.547 111.000,93.237 111.000 C 93.185 111.000,92.622 111.461,91.987 112.024 M306.667 111.104 C 306.667 111.187,307.217 111.674,307.890 112.188 C 308.563 112.701,309.009 112.951,308.880 112.743 C 308.617 112.316,306.667 110.873,306.667 111.104 M87.167 115.727 C 76.544 124.375,65.418 135.677,58.188 145.167 C 56.251 147.708,58.083 145.618,62.157 140.637 C 66.858 134.890,78.890 122.858,84.637 118.157 C 90.077 113.708,90.881 113.022,90.667 113.017 C 90.575 113.015,89.000 114.234,87.167 115.727 M310.029 113.709 C 310.504 114.144,312.904 116.147,315.363 118.160 C 321.110 122.866,333.134 134.890,337.840 140.637 C 341.927 145.630,343.740 147.697,341.812 145.167 C 336.049 137.603,323.643 124.682,316.333 118.631 C 312.227 115.231,308.612 112.409,310.029 113.709 M351.642 125.667 C 352.985 127.225,355.356 130.112,356.910 132.083 C 358.463 134.054,359.803 135.667,359.887 135.667 C 360.290 135.667,350.985 124.260,349.826 123.333 C 349.482 123.058,350.299 124.108,351.642 125.667 M266.921 126.236 C 267.335 126.315,267.935 126.312,268.254 126.229 C 268.573 126.146,268.233 126.080,267.500 126.084 C 266.767 126.088,266.506 126.156,266.921 126.236 M129.667 127.667 C 128.933 128.400,128.334 129.188,128.336 129.417 C 128.337 129.646,128.632 129.383,128.992 128.833 C 129.352 128.283,130.134 127.496,130.730 127.083 C 131.327 126.671,131.631 126.333,131.407 126.333 C 131.183 126.333,130.400 126.933,129.667 127.667 M137.270 127.083 C 137.866 127.496,138.648 128.283,139.008 128.833 C 139.368 129.383,139.663 129.646,139.664 129.417 C 139.667 128.881,137.129 126.333,136.593 126.333 C 136.369 126.333,136.673 126.671,137.270 127.083 M153.667 127.667 C 152.933 128.400,152.334 129.188,152.336 129.417 C 152.337 129.646,152.632 129.383,152.992 128.833 C 153.352 128.283,154.134 127.496,154.730 127.083 C 155.327 126.671,155.631 126.333,155.407 126.333 C 155.183 126.333,154.400 126.933,153.667 127.667 M161.270 127.083 C 161.866 127.496,162.648 128.283,163.008 128.833 C 163.368 129.383,163.663 129.646,163.664 129.417 C 163.667 128.881,161.129 126.333,160.593 126.333 C 160.369 126.333,160.673 126.671,161.270 127.083 M177.667 127.667 C 176.933 128.400,176.334 129.188,176.336 129.417 C 176.337 129.646,176.632 129.383,176.992 128.833 C 177.352 128.283,178.134 127.496,178.730 127.083 C 179.327 126.671,179.631 126.333,179.407 126.333 C 179.183 126.333,178.400 126.933,177.667 127.667 M185.270 127.083 C 185.866 127.496,186.648 128.283,187.008 128.833 C 187.368 129.383,187.663 129.646,187.664 129.417 C 187.667 128.881,185.129 126.333,184.593 126.333 C 184.369 126.333,184.673 126.671,185.270 127.083 M201.667 127.667 C 200.933 128.400,200.334 129.188,200.336 129.417 C 200.337 129.646,200.632 129.383,200.992 128.833 C 201.352 128.283,202.134 127.496,202.730 127.083 C 203.327 126.671,203.631 126.333,203.407 126.333 C 203.183 126.333,202.400 126.933,201.667 127.667 M209.270 127.083 C 209.866 127.496,210.648 128.283,211.008 128.833 C 211.368 129.383,211.663 129.646,211.664 129.417 C 211.667 128.881,209.129 126.333,208.593 126.333 C 208.369 126.333,208.673 126.671,209.270 127.083 M257.500 128.000 C 257.080 128.181,257.018 128.286,257.333 128.286 C 257.608 128.286,258.133 128.158,258.500 128.000 C 258.920 127.819,258.982 127.714,258.667 127.714 C 258.392 127.714,257.867 127.842,257.500 128.000 M43.963 130.583 C 42.820 132.004,41.662 133.429,41.390 133.750 C 41.119 134.071,40.979 134.333,41.079 134.333 C 41.179 134.333,42.407 132.908,43.808 131.167 C 45.208 129.425,46.284 128.000,46.199 128.000 C 46.113 128.000,45.107 129.162,43.963 130.583 M252.667 129.833 C 252.208 130.095,251.983 130.310,252.167 130.310 C 252.350 130.310,252.875 130.095,253.333 129.833 C 253.792 129.571,254.017 129.357,253.833 129.357 C 253.650 129.357,253.125 129.571,252.667 129.833 M247.417 132.522 C 246.637 132.989,246.000 133.450,246.000 133.546 C 246.000 133.726,248.249 132.449,248.817 131.947 C 249.390 131.440,248.856 131.659,247.417 132.522 M127.830 195.000 C 127.830 229.742,127.869 243.954,127.917 226.583 C 127.964 209.213,127.964 180.788,127.917 163.417 C 127.869 146.046,127.830 160.258,127.830 195.000 M151.829 186.667 C 151.829 216.825,151.869 229.163,151.917 214.083 C 151.965 199.004,151.965 174.329,151.917 159.250 C 151.869 144.171,151.829 156.508,151.829 186.667 M199.829 186.667 C 199.829 216.825,199.869 229.163,199.917 214.083 C 199.965 199.004,199.965 174.329,199.917 159.250 C 199.869 144.171,199.829 156.508,199.829 186.667 M243.188 135.366 C 238.995 138.540,233.421 144.419,231.840 147.333 C 231.398 148.148,232.048 147.384,234.398 144.329 C 236.779 141.232,239.717 138.343,243.035 135.836 C 245.512 133.965,245.866 133.667,245.616 133.667 C 245.515 133.667,244.423 134.431,243.188 135.366 M360.743 137.000 C 362.984 140.199,364.077 141.667,364.219 141.667 C 364.428 141.667,361.901 138.094,360.800 136.833 L 359.926 135.833 360.743 137.000 M37.938 138.417 C 36.586 140.228,35.533 141.863,36.059 141.333 C 36.738 140.649,39.094 137.333,38.901 137.333 C 38.816 137.333,38.382 137.821,37.938 138.417 M33.402 144.917 C 31.233 148.162,30.719 149.014,31.240 148.500 C 31.771 147.976,35.703 142.000,35.517 142.000 C 35.426 142.000,34.473 143.313,33.402 144.917 M366.369 145.083 C 368.268 147.934,369.506 149.574,368.823 148.333 C 368.195 147.194,364.637 142.000,364.483 142.000 C 364.391 142.000,365.240 143.387,366.369 145.083 M56.287 147.583 C 55.328 148.741,54.922 149.333,55.086 149.333 C 55.179 149.333,55.655 148.808,56.144 148.167 C 57.052 146.976,57.162 146.526,56.287 147.583 M343.812 148.110 C 344.326 148.783,344.813 149.333,344.896 149.333 C 345.127 149.333,343.684 147.383,343.257 147.120 C 343.049 146.991,343.299 147.437,343.812 148.110 M30.460 149.417 C 29.313 151.363,29.238 151.530,29.823 150.833 C 30.500 150.027,31.083 149.000,30.865 149.000 C 30.777 149.000,30.595 149.188,30.460 149.417 M230.167 150.000 C 229.882 150.550,229.725 151.000,229.816 151.000 C 229.908 151.000,230.216 150.550,230.500 150.000 C 230.784 149.450,230.942 149.000,230.850 149.000 C 230.759 149.000,230.451 149.450,230.167 150.000 M369.291 149.500 C 369.471 149.867,369.862 150.467,370.161 150.833 L 370.703 151.500 370.376 150.833 C 370.196 150.467,369.805 149.867,369.506 149.500 L 368.963 148.833 369.291 149.500 M53.938 150.750 C 52.586 152.561,51.533 154.197,52.059 153.667 C 52.738 152.982,55.094 149.667,54.901 149.667 C 54.816 149.667,54.382 150.154,53.938 150.750 M346.144 151.349 C 348.026 153.978,348.696 154.547,346.990 152.065 C 346.195 150.910,345.387 149.866,345.194 149.747 C 345.001 149.628,345.429 150.349,346.144 151.349 M227.721 154.848 C 227.162 156.073,227.269 156.335,227.873 155.221 C 228.155 154.700,228.323 154.212,228.247 154.136 C 228.171 154.060,227.934 154.380,227.721 154.848 M26.500 156.000 C 26.216 156.550,26.058 157.000,26.150 157.000 C 26.241 157.000,26.549 156.550,26.833 156.000 C 27.118 155.450,27.275 155.000,27.184 155.000 C 27.092 155.000,26.784 155.450,26.500 156.000 M373.167 156.000 C 373.451 156.550,373.759 157.000,373.850 157.000 C 373.942 157.000,373.784 156.550,373.500 156.000 C 373.216 155.450,372.908 155.000,372.816 155.000 C 372.725 155.000,372.882 155.450,373.167 156.000 M25.167 158.333 C 24.882 158.883,24.725 159.333,24.816 159.333 C 24.908 159.333,25.216 158.883,25.500 158.333 C 25.784 157.783,25.942 157.333,25.850 157.333 C 25.759 157.333,25.451 157.783,25.167 158.333 M374.667 158.667 C 375.041 159.400,375.422 160.000,375.514 160.000 C 375.605 160.000,375.374 159.400,375.000 158.667 C 374.626 157.933,374.245 157.333,374.153 157.333 C 374.061 157.333,374.293 157.933,374.667 158.667 M47.794 159.750 C 46.646 161.697,46.572 161.863,47.156 161.167 C 47.833 160.360,48.417 159.333,48.198 159.333 C 48.111 159.333,47.929 159.521,47.794 159.750 M23.000 162.333 C 22.445 163.433,22.065 164.333,22.157 164.333 C 22.249 164.333,22.778 163.433,23.333 162.333 C 23.889 161.233,24.268 160.333,24.176 160.333 C 24.085 160.333,23.555 161.233,23.000 162.333 M376.667 162.333 C 377.222 163.433,377.751 164.333,377.843 164.333 C 377.935 164.333,377.555 163.433,377.000 162.333 C 376.445 161.233,375.915 160.333,375.824 160.333 C 375.732 160.333,376.111 161.233,376.667 162.333 M43.833 166.333 C 43.549 166.883,43.391 167.333,43.483 167.333 C 43.575 167.333,43.882 166.883,44.167 166.333 C 44.451 165.783,44.609 165.333,44.517 165.333 C 44.425 165.333,44.118 165.783,43.833 166.333 M355.833 166.333 C 356.118 166.883,356.425 167.333,356.517 167.333 C 356.609 167.333,356.451 166.883,356.167 166.333 C 355.882 165.783,355.575 165.333,355.483 165.333 C 355.391 165.333,355.549 165.783,355.833 166.333 M42.333 169.000 C 41.959 169.733,41.728 170.333,41.820 170.333 C 41.911 170.333,42.293 169.733,42.667 169.000 C 43.041 168.267,43.272 167.667,43.180 167.667 C 43.089 167.667,42.707 168.267,42.333 169.000 M357.333 169.000 C 357.707 169.733,358.089 170.333,358.180 170.333 C 358.272 170.333,358.041 169.733,357.667 169.000 C 357.293 168.267,356.911 167.667,356.820 167.667 C 356.728 167.667,356.959 168.267,357.333 169.000 M224.084 169.500 C 224.088 170.233,224.156 170.494,224.236 170.079 C 224.315 169.665,224.312 169.065,224.229 168.746 C 224.146 168.427,224.080 168.767,224.084 169.500 M380.363 169.500 C 380.363 169.683,380.725 170.508,381.167 171.333 C 381.608 172.158,381.970 172.683,381.970 172.500 C 381.970 172.317,381.608 171.492,381.167 170.667 C 380.725 169.842,380.363 169.317,380.363 169.500 M18.560 171.182 C 17.777 172.824,17.887 173.104,18.705 171.552 C 19.077 170.847,19.323 170.211,19.251 170.139 C 19.178 170.067,18.868 170.537,18.560 171.182 M38.982 175.369 C 37.870 177.588,37.012 179.457,37.076 179.521 C 37.141 179.585,38.124 177.769,39.262 175.486 C 40.399 173.202,41.257 171.333,41.168 171.333 C 41.078 171.333,40.095 173.149,38.982 175.369 M360.738 175.486 C 361.876 177.769,362.859 179.585,362.924 179.521 C 363.071 179.374,359.053 171.333,358.832 171.333 C 358.743 171.333,359.601 173.202,360.738 175.486 M223.804 179.333 C 223.804 182.542,223.854 183.854,223.915 182.250 C 223.976 180.646,223.976 178.021,223.915 176.417 C 223.854 174.813,223.804 176.125,223.804 179.333 M382.357 173.833 C 382.357 174.017,382.571 174.542,382.833 175.000 C 383.095 175.458,383.310 175.683,383.310 175.500 C 383.310 175.317,383.095 174.792,382.833 174.333 C 382.571 173.875,382.357 173.650,382.357 173.833 M15.721 177.514 C 15.162 178.740,15.269 179.002,15.873 177.887 C 16.155 177.367,16.323 176.879,16.247 176.802 C 16.171 176.726,15.934 177.047,15.721 177.514 M383.690 176.833 C 383.690 177.017,383.905 177.542,384.167 178.000 C 384.429 178.458,384.643 178.683,384.643 178.500 C 384.643 178.317,384.429 177.792,384.167 177.333 C 383.905 176.875,383.690 176.650,383.690 176.833 M363.690 181.500 C 363.690 181.683,363.905 182.208,364.167 182.667 C 364.429 183.125,364.643 183.350,364.643 183.167 C 364.643 182.983,364.429 182.458,364.167 182.000 C 363.905 181.542,363.690 181.317,363.690 181.500 M34.387 185.181 C 33.829 186.407,33.936 186.668,34.539 185.554 C 34.821 185.033,34.990 184.545,34.914 184.469 C 34.837 184.393,34.601 184.713,34.387 185.181 M365.024 184.500 C 365.024 184.683,365.238 185.208,365.500 185.667 C 365.762 186.125,365.976 186.350,365.976 186.167 C 365.976 185.983,365.762 185.458,365.500 185.000 C 365.238 184.542,365.024 184.317,365.024 184.500 M11.704 187.704 C 11.498 188.293,11.389 188.833,11.460 188.904 C 11.531 188.976,11.758 188.552,11.963 187.963 C 12.168 187.374,12.278 186.834,12.207 186.762 C 12.135 186.691,11.909 187.115,11.704 187.704 M387.858 187.333 C 387.980 187.792,388.220 188.392,388.390 188.667 C 388.604 189.014,388.631 188.912,388.476 188.333 C 388.353 187.875,388.114 187.275,387.944 187.000 C 387.729 186.653,387.703 186.754,387.858 187.333 M30.037 196.370 C 29.832 196.959,29.722 197.500,29.793 197.571 C 29.865 197.642,30.091 197.219,30.296 196.630 C 30.502 196.041,30.611 195.500,30.540 195.429 C 30.469 195.358,30.242 195.781,30.037 196.370 M369.524 196.000 C 369.647 196.458,369.886 197.058,370.056 197.333 C 370.271 197.681,370.297 197.579,370.142 197.000 C 370.020 196.542,369.780 195.942,369.610 195.667 C 369.396 195.319,369.369 195.421,369.524 196.000 M391.047 196.667 C 391.047 196.942,391.176 197.467,391.333 197.833 C 391.514 198.254,391.620 198.315,391.620 198.000 C 391.620 197.725,391.491 197.200,391.333 196.833 C 391.153 196.413,391.047 196.352,391.047 196.667 M28.190 201.857 C 28.068 202.346,28.032 202.810,28.110 202.888 C 28.189 202.967,28.354 202.631,28.476 202.143 C 28.599 201.654,28.635 201.190,28.556 201.112 C 28.478 201.033,28.313 201.369,28.190 201.857 M371.380 201.333 C 371.380 201.608,371.509 202.133,371.667 202.500 C 371.847 202.920,371.953 202.982,371.953 202.667 C 371.953 202.392,371.824 201.867,371.667 201.500 C 371.486 201.080,371.380 201.018,371.380 201.333 M378.411 233.333 C 378.411 233.975,378.479 234.237,378.563 233.917 C 378.647 233.596,378.647 233.071,378.563 232.750 C 378.479 232.429,378.411 232.692,378.411 233.333 M1.077 233.667 C 1.077 234.308,1.146 234.571,1.230 234.250 C 1.314 233.929,1.314 233.404,1.230 233.083 C 1.146 232.762,1.077 233.025,1.077 233.667 M398.744 233.667 C 398.744 234.308,398.813 234.571,398.896 234.250 C 398.980 233.929,398.980 233.404,398.896 233.083 C 398.813 232.762,398.744 233.025,398.744 233.667 M21.077 236.000 C 21.077 236.642,21.146 236.904,21.230 236.583 C 21.314 236.262,21.314 235.737,21.230 235.417 C 21.146 235.096,21.077 235.358,21.077 236.000 M0.751 236.833 C 0.754 237.567,0.823 237.827,0.902 237.413 C 0.982 236.998,0.979 236.398,0.896 236.079 C 0.812 235.761,0.747 236.100,0.751 236.833 M399.091 237.000 C 399.091 237.825,399.156 238.162,399.235 237.750 C 399.315 237.338,399.315 236.662,399.235 236.250 C 399.156 235.838,399.091 236.175,399.091 237.000 M20.757 239.333 C 20.757 240.158,20.822 240.496,20.902 240.083 C 20.981 239.671,20.981 238.996,20.902 238.583 C 20.822 238.171,20.757 238.508,20.757 239.333 M379.084 239.500 C 379.088 240.233,379.156 240.494,379.236 240.079 C 379.315 239.665,379.312 239.065,379.229 238.746 C 379.146 238.427,379.080 238.767,379.084 239.500 M0.429 241.167 C 0.431 242.083,0.496 242.419,0.573 241.912 C 0.649 241.405,0.647 240.655,0.568 240.245 C 0.489 239.835,0.426 240.250,0.429 241.167 M399.429 241.167 C 399.431 242.083,399.496 242.419,399.573 241.912 C 399.649 241.405,399.647 240.655,399.568 240.245 C 399.489 239.835,399.426 240.250,399.429 241.167 M175.712 240.556 C 175.687 240.954,175.580 241.554,175.475 241.889 C 175.293 242.467,175.303 242.468,175.663 241.907 C 175.873 241.581,175.979 240.981,175.901 240.574 C 175.758 239.834,175.757 239.834,175.712 240.556 M20.429 243.500 C 20.431 244.417,20.496 244.752,20.573 244.245 C 20.649 243.739,20.647 242.989,20.568 242.579 C 20.489 242.169,20.426 242.583,20.429 243.500 M379.433 243.667 C 379.433 244.675,379.496 245.088,379.572 244.583 C 379.648 244.079,379.648 243.254,379.572 242.750 C 379.496 242.246,379.433 242.658,379.433 243.667 M0.112 246.667 C 0.112 248.042,0.171 248.604,0.243 247.917 C 0.315 247.229,0.315 246.104,0.243 245.417 C 0.171 244.729,0.112 245.292,0.112 246.667 M399.779 246.667 C 399.779 248.042,399.838 248.604,399.909 247.917 C 399.981 247.229,399.981 246.104,399.909 245.417 C 399.838 244.729,399.779 245.292,399.779 246.667 M20.130 251.500 C 20.130 253.883,20.183 254.815,20.247 253.569 C 20.312 252.324,20.311 250.374,20.246 249.236 C 20.182 248.098,20.129 249.117,20.130 251.500 M379.812 256.000 C 379.812 260.675,379.858 262.587,379.916 260.250 C 379.973 257.912,379.973 254.088,379.916 251.750 C 379.858 249.412,379.812 251.325,379.812 256.000 M20.130 260.500 C 20.130 262.883,20.183 263.815,20.247 262.569 C 20.312 261.324,20.311 259.374,20.246 258.236 C 20.182 257.098,20.129 258.117,20.130 260.500 M0.114 265.167 C 0.115 266.633,0.174 267.192,0.244 266.408 C 0.315 265.624,0.314 264.424,0.242 263.741 C 0.171 263.059,0.113 263.700,0.114 265.167 M399.776 265.167 C 399.778 266.450,399.838 266.934,399.910 266.243 C 399.982 265.551,399.981 264.501,399.907 263.909 C 399.834 263.317,399.775 263.883,399.776 265.167 M209.608 268.028 C 208.935 269.479,208.455 270.667,208.542 270.667 C 208.766 270.667,211.112 265.668,210.960 265.516 C 210.890 265.446,210.282 266.577,209.608 268.028 M129.357 266.500 C 129.357 266.683,129.571 267.208,129.833 267.667 C 130.095 268.125,130.310 268.350,130.310 268.167 C 130.310 267.983,130.095 267.458,129.833 267.000 C 129.571 266.542,129.357 266.317,129.357 266.500 M20.429 268.500 C 20.431 269.417,20.496 269.752,20.573 269.245 C 20.649 268.739,20.647 267.989,20.568 267.579 C 20.489 267.169,20.426 267.583,20.429 268.500 M379.429 268.500 C 379.431 269.417,379.496 269.752,379.573 269.245 C 379.649 268.739,379.647 267.989,379.568 267.579 C 379.489 267.169,379.426 267.583,379.429 268.500 M0.429 270.833 C 0.431 271.750,0.496 272.085,0.573 271.579 C 0.649 271.072,0.647 270.322,0.568 269.912 C 0.489 269.502,0.426 269.917,0.429 270.833 M399.424 271.000 C 399.424 271.825,399.489 272.162,399.569 271.750 C 399.648 271.337,399.648 270.662,399.569 270.250 C 399.489 269.837,399.424 270.175,399.424 271.000 M379.084 272.500 C 379.088 273.233,379.156 273.494,379.236 273.079 C 379.315 272.665,379.312 272.065,379.229 271.746 C 379.146 271.427,379.080 271.767,379.084 272.500 M20.744 272.667 C 20.744 273.308,20.813 273.571,20.896 273.250 C 20.980 272.929,20.980 272.404,20.896 272.083 C 20.813 271.762,20.744 272.025,20.744 272.667 M204.675 274.946 C 203.121 276.534,202.446 277.359,203.175 276.779 C 204.416 275.792,205.679 274.511,207.145 272.750 C 208.343 271.313,207.481 272.079,204.675 274.946 M134.501 274.615 C 135.991 276.234,139.109 278.554,141.237 279.626 C 143.493 280.763,143.363 280.424,141.069 279.188 C 138.574 277.843,137.079 276.767,134.834 274.700 L 133.169 273.167 134.501 274.615 M399.084 274.833 C 399.088 275.567,399.156 275.827,399.236 275.413 C 399.315 274.998,399.312 274.398,399.229 274.079 C 399.146 273.761,399.080 274.100,399.084 274.833 M0.751 275.167 C 0.754 275.900,0.823 276.161,0.902 275.746 C 0.982 275.331,0.979 274.731,0.896 274.413 C 0.812 274.094,0.747 274.433,0.751 275.167 M21.077 276.000 C 21.077 276.642,21.146 276.904,21.230 276.583 C 21.314 276.262,21.314 275.737,21.230 275.417 C 21.146 275.096,21.077 275.358,21.077 276.000 M378.744 276.000 C 378.744 276.642,378.813 276.904,378.896 276.583 C 378.980 276.262,378.980 275.737,378.896 275.417 C 378.813 275.096,378.744 275.358,378.744 276.000 M1.077 278.333 C 1.077 278.975,1.146 279.237,1.230 278.917 C 1.314 278.596,1.314 278.071,1.230 277.750 C 1.146 277.429,1.077 277.692,1.077 278.333 M398.744 278.333 C 398.744 278.975,398.813 279.237,398.896 278.917 C 398.980 278.596,398.980 278.071,398.896 277.750 C 398.813 277.429,398.744 277.692,398.744 278.333 M378.411 278.667 C 378.411 279.308,378.479 279.571,378.563 279.250 C 378.647 278.929,378.647 278.404,378.563 278.083 C 378.479 277.762,378.411 278.025,378.411 278.667 M198.667 279.333 C 197.658 279.866,196.951 280.309,197.094 280.318 C 197.449 280.339,200.667 278.697,200.667 278.494 C 200.667 278.272,200.713 278.252,198.667 279.333 M148.750 281.896 C 149.071 281.980,149.596 281.980,149.917 281.896 C 150.237 281.813,149.975 281.744,149.333 281.744 C 148.692 281.744,148.429 281.813,148.750 281.896 M190.083 281.896 C 190.404 281.980,190.929 281.980,191.250 281.896 C 191.571 281.813,191.308 281.744,190.667 281.744 C 190.025 281.744,189.762 281.813,190.083 281.896 M151.830 355.833 C 151.830 396.533,151.869 413.134,151.917 392.723 C 151.964 372.313,151.964 339.013,151.917 318.723 C 151.869 298.434,151.830 315.133,151.830 355.833 M28.047 309.333 C 28.047 309.608,28.176 310.133,28.333 310.500 C 28.514 310.920,28.620 310.982,28.620 310.667 C 28.620 310.392,28.491 309.867,28.333 309.500 C 28.153 309.080,28.047 309.018,28.047 309.333 M371.524 309.857 C 371.401 310.346,371.365 310.810,371.444 310.888 C 371.522 310.967,371.687 310.631,371.810 310.143 C 371.932 309.654,371.968 309.190,371.890 309.112 C 371.811 309.033,371.646 309.369,371.524 309.857 M8.380 314.000 C 8.380 314.275,8.509 314.800,8.667 315.167 C 8.847 315.587,8.953 315.648,8.953 315.333 C 8.953 315.058,8.824 314.533,8.667 314.167 C 8.486 313.746,8.380 313.685,8.380 314.000 M391.190 314.524 C 391.068 315.012,391.032 315.476,391.110 315.555 C 391.189 315.633,391.354 315.298,391.476 314.810 C 391.599 314.321,391.635 313.857,391.556 313.778 C 391.478 313.700,391.313 314.035,391.190 314.524 M369.704 315.370 C 369.498 315.959,369.389 316.500,369.460 316.571 C 369.531 316.642,369.758 316.219,369.963 315.630 C 370.168 315.041,370.278 314.500,370.207 314.429 C 370.135 314.358,369.909 314.781,369.704 315.370 M11.524 323.667 C 11.647 324.125,11.886 324.725,12.056 325.000 C 12.271 325.347,12.297 325.246,12.142 324.667 C 12.020 324.208,11.780 323.608,11.610 323.333 C 11.396 322.986,11.369 323.088,11.524 323.667 M388.037 324.037 C 387.832 324.626,387.722 325.166,387.793 325.238 C 387.865 325.309,388.091 324.885,388.296 324.296 C 388.502 323.707,388.611 323.167,388.540 323.096 C 388.469 323.024,388.242 323.448,388.037 324.037 M34.024 325.833 C 34.024 326.017,34.238 326.542,34.500 327.000 C 34.762 327.458,34.976 327.683,34.976 327.500 C 34.976 327.317,34.762 326.792,34.500 326.333 C 34.238 325.875,34.024 325.650,34.024 325.833 M365.387 326.514 C 364.829 327.740,364.936 328.002,365.539 326.887 C 365.821 326.367,365.990 325.879,365.914 325.802 C 365.837 325.726,365.601 326.047,365.387 326.514 M387.037 326.704 C 386.832 327.293,386.722 327.833,386.793 327.904 C 386.865 327.976,387.091 327.552,387.296 326.963 C 387.502 326.374,387.611 325.834,387.540 325.762 C 387.469 325.691,387.242 326.115,387.037 326.704 M35.028 328.167 C 35.028 328.350,35.315 329.025,35.667 329.667 C 36.018 330.308,36.305 330.683,36.305 330.500 C 36.305 330.317,36.018 329.642,35.667 329.000 C 35.315 328.358,35.028 327.983,35.028 328.167 M364.054 329.514 C 363.496 330.740,363.602 331.002,364.206 329.887 C 364.488 329.367,364.656 328.879,364.580 328.802 C 364.504 328.726,364.267 329.047,364.054 329.514 M36.667 331.783 C 36.667 332.146,40.987 340.667,41.171 340.667 C 41.321 340.667,37.110 332.033,36.795 331.694 C 36.725 331.618,36.667 331.658,36.667 331.783 M360.905 336.181 C 359.859 338.281,359.077 340.000,359.166 340.000 C 359.387 340.000,363.071 332.626,362.923 332.479 C 362.859 332.414,361.950 334.080,360.905 336.181 M15.357 333.500 C 15.357 333.683,15.571 334.208,15.833 334.667 C 16.095 335.125,16.310 335.350,16.310 335.167 C 16.310 334.983,16.095 334.458,15.833 334.000 C 15.571 333.542,15.357 333.317,15.357 333.500 M384.054 334.181 C 383.496 335.407,383.602 335.668,384.206 334.554 C 384.488 334.033,384.656 333.545,384.580 333.469 C 384.504 333.393,384.267 333.713,384.054 334.181 M382.721 337.181 C 382.162 338.407,382.269 338.668,382.873 337.554 C 383.155 337.033,383.323 336.545,383.247 336.469 C 383.171 336.393,382.934 336.713,382.721 337.181 M18.030 339.500 C 18.030 339.683,18.392 340.508,18.833 341.333 C 19.275 342.158,19.637 342.683,19.637 342.500 C 19.637 342.317,19.275 341.492,18.833 340.667 C 18.392 339.842,18.030 339.317,18.030 339.500 M381.063 340.850 C 380.059 342.916,380.171 343.206,381.205 341.217 C 381.668 340.329,381.989 339.544,381.919 339.475 C 381.849 339.405,381.464 340.024,381.063 340.850 M42.333 343.000 C 42.707 343.733,43.089 344.333,43.180 344.333 C 43.272 344.333,43.041 343.733,42.667 343.000 C 42.293 342.267,41.911 341.667,41.820 341.667 C 41.728 341.667,41.959 342.267,42.333 343.000 M357.333 343.000 C 356.959 343.733,356.728 344.333,356.820 344.333 C 356.911 344.333,357.293 343.733,357.667 343.000 C 358.041 342.267,358.272 341.667,358.180 341.667 C 358.089 341.667,357.707 342.267,357.333 343.000 M43.833 345.667 C 44.118 346.217,44.425 346.667,44.517 346.667 C 44.609 346.667,44.451 346.217,44.167 345.667 C 43.882 345.117,43.575 344.667,43.483 344.667 C 43.391 344.667,43.549 345.117,43.833 345.667 M355.833 345.667 C 355.549 346.217,355.391 346.667,355.483 346.667 C 355.575 346.667,355.882 346.217,356.167 345.667 C 356.451 345.117,356.609 344.667,356.517 344.667 C 356.425 344.667,356.118 345.117,355.833 345.667 M376.667 349.667 C 376.111 350.767,375.732 351.667,375.824 351.667 C 375.915 351.667,376.445 350.767,377.000 349.667 C 377.555 348.567,377.935 347.667,377.843 347.667 C 377.751 347.667,377.222 348.567,376.667 349.667 M23.167 350.000 C 23.631 350.917,24.086 351.667,24.178 351.667 C 24.270 351.667,23.965 350.917,23.500 350.000 C 23.035 349.083,22.580 348.333,22.489 348.333 C 22.397 348.333,22.702 349.083,23.167 350.000 M47.175 351.189 C 47.484 351.751,48.034 352.576,48.397 353.022 L 49.056 353.833 48.492 352.811 C 48.182 352.249,47.632 351.424,47.270 350.978 L 46.611 350.167 47.175 351.189 M352.538 351.167 C 352.242 351.625,351.757 352.412,351.460 352.917 L 350.921 353.833 351.591 353.022 C 352.384 352.064,353.434 350.333,353.224 350.333 C 353.143 350.333,352.834 350.708,352.538 351.167 M25.167 353.667 C 25.451 354.217,25.759 354.667,25.850 354.667 C 25.942 354.667,25.784 354.217,25.500 353.667 C 25.216 353.117,24.908 352.667,24.816 352.667 C 24.725 352.667,24.882 353.117,25.167 353.667 M223.779 353.333 C 223.825 354.044,224.005 354.173,225.000 354.210 C 226.125 354.252,226.129 354.248,225.104 354.107 C 224.345 354.003,223.996 353.752,223.883 353.230 C 223.750 352.621,223.733 352.638,223.779 353.333 M374.500 353.667 C 374.216 354.217,374.058 354.667,374.150 354.667 C 374.241 354.667,374.549 354.217,374.833 353.667 C 375.118 353.117,375.275 352.667,375.184 352.667 C 375.092 352.667,374.784 353.117,374.500 353.667 M229.667 355.701 C 231.332 356.698,232.937 358.269,234.043 359.982 C 234.569 360.797,235.000 361.318,235.000 361.139 C 235.000 359.911,230.090 354.997,228.867 355.001 C 228.665 355.002,229.025 355.317,229.667 355.701 M373.167 356.000 C 372.882 356.550,372.725 357.000,372.816 357.000 C 372.908 357.000,373.216 356.550,373.500 356.000 C 373.784 355.450,373.942 355.000,373.850 355.000 C 373.759 355.000,373.451 355.450,373.167 356.000 M53.010 359.935 C 53.805 361.090,54.613 362.134,54.806 362.253 C 55.201 362.497,52.826 359.107,52.060 358.333 C 51.788 358.058,52.215 358.779,53.010 359.935 M347.291 359.083 C 346.877 359.679,346.154 360.684,345.685 361.317 C 345.217 361.949,344.993 362.370,345.189 362.251 C 345.611 361.996,348.451 358.000,348.211 358.000 C 348.120 358.000,347.706 358.488,347.291 359.083 M29.624 361.167 C 29.804 361.533,30.195 362.133,30.494 362.500 L 31.037 363.167 30.709 362.500 C 30.529 362.133,30.138 361.533,29.839 361.167 L 29.297 360.500 29.624 361.167 M370.127 361.083 C 368.980 363.030,368.905 363.196,369.489 362.500 C 370.166 361.693,370.750 360.667,370.531 360.667 C 370.444 360.667,370.262 360.854,370.127 361.083 M31.177 363.667 C 31.805 364.806,35.363 370.000,35.517 370.000 C 35.703 370.000,31.771 364.024,31.240 363.500 C 31.013 363.276,30.992 363.330,31.177 363.667 M366.549 366.667 C 365.328 368.500,364.402 370.000,364.490 370.000 C 364.578 370.000,365.527 368.688,366.598 367.083 C 368.870 363.684,369.086 363.333,368.904 363.333 C 368.829 363.333,367.770 364.833,366.549 366.667 M235.748 398.060 L 235.667 432.287 234.917 432.431 L 234.167 432.576 234.927 432.621 C 236.057 432.689,236.011 434.283,235.918 397.833 L 235.830 363.833 235.748 398.060 M58.188 366.833 C 65.615 376.581,79.419 390.385,89.167 397.812 C 91.697 399.740,89.630 397.927,84.637 393.840 C 78.890 389.134,66.866 377.110,62.160 371.363 C 58.073 366.370,56.260 364.303,58.188 366.833 M339.440 369.417 C 331.177 379.577,320.971 389.607,310.917 397.447 C 309.313 398.698,308.000 399.793,308.000 399.880 C 308.000 400.115,311.628 397.289,316.167 393.519 C 321.252 389.296,333.223 377.332,337.366 372.333 C 341.757 367.035,343.107 365.333,342.920 365.333 C 342.832 365.333,341.266 367.171,339.440 369.417 M37.010 372.268 C 37.805 373.424,38.613 374.467,38.806 374.586 C 39.201 374.830,36.826 371.441,36.060 370.667 C 35.788 370.392,36.215 371.112,37.010 372.268 M362.812 372.083 C 362.123 373.046,361.193 374.358,360.743 375.000 L 359.926 376.167 360.800 375.167 C 361.901 373.906,364.428 370.333,364.219 370.333 C 364.133 370.333,363.500 371.121,362.812 372.083 M41.551 378.333 C 50.386 390.219,65.781 405.614,77.667 414.449 C 80.585 416.618,79.061 415.284,73.431 410.740 C 63.609 402.814,53.186 392.391,45.260 382.569 C 40.716 376.939,39.382 375.415,41.551 378.333 M356.910 379.917 C 355.356 381.887,352.985 384.775,351.642 386.333 C 350.299 387.892,349.482 388.942,349.826 388.667 C 350.985 387.740,360.290 376.333,359.887 376.333 C 359.803 376.333,358.463 377.946,356.910 379.917 M344.845 393.841 C 339.943 399.036,332.593 405.847,326.802 410.561 C 324.591 412.361,322.194 414.332,321.474 414.941 L 320.167 416.049 321.667 414.956 C 326.055 411.759,334.274 404.692,339.608 399.530 C 342.389 396.839,349.488 389.333,349.253 389.333 C 349.167 389.333,347.184 391.362,344.845 393.841 M304.439 402.269 C 302.756 403.496,301.256 404.638,301.106 404.806 C 300.723 405.237,305.621 401.855,306.833 400.852 C 308.642 399.355,307.553 399.999,304.439 402.269 M93.667 401.121 C 93.667 401.213,94.117 401.608,94.667 402.000 C 95.217 402.392,95.667 402.637,95.667 402.545 C 95.667 402.454,95.217 402.058,94.667 401.667 C 94.117 401.275,93.667 401.030,93.667 401.121 M96.000 402.801 C 96.000 402.893,96.675 403.432,97.500 404.000 C 98.325 404.568,99.000 404.957,99.000 404.865 C 99.000 404.774,98.325 404.234,97.500 403.667 C 96.675 403.099,96.000 402.710,96.000 402.801 M102.833 407.506 C 103.200 407.805,103.800 408.196,104.167 408.376 L 104.833 408.703 104.167 408.161 C 103.800 407.862,103.200 407.471,102.833 407.291 L 102.167 406.963 102.833 407.506 M295.266 408.437 C 293.248 409.720,291.748 410.861,293.000 410.161 C 294.352 409.405,297.667 407.257,297.667 407.137 C 297.667 406.917,297.607 406.949,295.266 408.437 M105.500 409.173 C 105.867 409.471,106.467 409.863,106.833 410.043 L 107.500 410.370 106.833 409.827 C 106.467 409.529,105.867 409.137,105.500 408.957 L 104.833 408.630 105.500 409.173 M107.667 410.483 C 107.667 410.575,108.117 410.882,108.667 411.167 C 109.217 411.451,109.667 411.609,109.667 411.517 C 109.667 411.425,109.217 411.118,108.667 410.833 C 108.117 410.549,107.667 410.391,107.667 410.483 M290.417 411.368 C 289.454 411.929,288.667 412.465,288.667 412.559 C 288.667 412.744,291.631 411.096,292.150 410.622 C 292.715 410.107,292.202 410.328,290.417 411.368 M286.917 413.356 C 286.229 413.719,285.667 414.090,285.667 414.181 C 285.667 414.272,286.267 414.041,287.000 413.667 C 287.733 413.293,288.333 412.914,288.333 412.827 C 288.333 412.609,288.331 412.609,286.917 413.356 M112.333 413.150 C 112.333 413.241,112.783 413.549,113.333 413.833 C 113.883 414.118,114.333 414.275,114.333 414.184 C 114.333 414.092,113.883 413.784,113.333 413.500 C 112.783 413.216,112.333 413.058,112.333 413.150 M280.333 416.833 C 278.042 418.006,276.281 418.973,276.422 418.983 C 276.776 419.007,284.667 415.033,284.667 414.831 C 284.667 414.603,284.933 414.480,280.333 416.833 M116.000 415.166 C 116.000 415.387,122.707 418.737,122.855 418.590 C 122.920 418.525,121.404 417.691,119.486 416.738 C 117.569 415.784,116.000 415.077,116.000 415.166 M81.414 417.194 C 81.533 417.387,82.576 418.195,83.732 418.990 C 84.888 419.785,85.608 420.212,85.333 419.940 C 84.559 419.174,81.170 416.799,81.414 417.194 M316.667 418.368 C 314.050 420.279,313.776 420.708,316.268 418.992 C 318.055 417.761,319.005 416.957,318.603 417.015 C 318.546 417.023,317.675 417.632,316.667 418.368 M126.000 420.167 C 126.458 420.429,126.983 420.643,127.167 420.643 C 127.350 420.643,127.125 420.429,126.667 420.167 C 126.208 419.905,125.683 419.690,125.500 419.690 C 125.317 419.690,125.542 419.905,126.000 420.167 M273.333 420.167 C 272.875 420.429,272.650 420.643,272.833 420.643 C 273.017 420.643,273.542 420.429,274.000 420.167 C 274.458 419.905,274.683 419.690,274.500 419.690 C 274.317 419.690,273.792 419.905,273.333 420.167 M86.000 420.483 C 86.000 420.574,87.313 421.527,88.917 422.598 C 92.162 424.767,93.014 425.281,92.500 424.760 C 91.976 424.229,86.000 420.297,86.000 420.483 M310.744 422.470 C 307.895 424.404,306.464 425.500,307.667 424.827 C 308.825 424.179,314.000 420.636,314.000 420.491 C 314.000 420.256,314.068 420.215,310.744 422.470 M93.500 425.506 C 93.867 425.805,94.467 426.196,94.833 426.376 L 95.500 426.703 94.833 426.161 C 94.467 425.862,93.867 425.471,93.500 425.291 L 92.833 424.963 93.500 425.506 M305.750 425.705 C 304.614 426.433,304.246 426.921,305.250 426.369 C 306.015 425.949,307.213 425.023,307.000 425.016 C 306.908 425.013,306.346 425.323,305.750 425.705 M143.000 426.833 C 144.522 427.419,145.121 427.411,143.833 426.821 C 143.283 426.569,142.608 426.368,142.333 426.374 C 142.058 426.379,142.358 426.586,143.000 426.833 M99.000 428.816 C 99.000 428.908,99.450 429.216,100.000 429.500 C 100.550 429.784,101.000 429.942,101.000 429.850 C 101.000 429.759,100.550 429.451,100.000 429.167 C 99.450 428.882,99.000 428.725,99.000 428.816 M299.917 429.191 C 298.671 429.867,298.746 430.148,300.000 429.500 C 300.550 429.216,301.000 428.912,301.000 428.825 C 301.000 428.610,300.964 428.622,299.917 429.191 M101.333 430.153 C 101.333 430.245,101.933 430.626,102.667 431.000 C 103.400 431.374,104.000 431.605,104.000 431.514 C 104.000 431.422,103.400 431.041,102.667 430.667 C 101.933 430.293,101.333 430.061,101.333 430.153 M297.583 430.524 C 296.337 431.200,296.413 431.482,297.667 430.833 C 298.217 430.549,298.667 430.245,298.667 430.158 C 298.667 429.944,298.631 429.956,297.583 430.524 M104.333 431.824 C 104.333 431.915,105.233 432.445,106.333 433.000 C 107.433 433.555,108.333 433.935,108.333 433.843 C 108.333 433.751,107.433 433.222,106.333 432.667 C 105.233 432.111,104.333 431.732,104.333 431.824 M293.583 432.688 C 292.529 433.232,291.667 433.752,291.667 433.843 C 291.667 433.935,292.567 433.555,293.667 433.000 C 294.767 432.445,295.667 431.918,295.667 431.829 C 295.667 431.606,295.728 431.581,293.583 432.688 M219.417 434.896 C 219.737 434.980,220.262 434.980,220.583 434.896 C 220.904 434.813,220.642 434.744,220.000 434.744 C 219.358 434.744,219.096 434.813,219.417 434.896 M215.921 435.236 C 216.335 435.315,216.935 435.312,217.254 435.229 C 217.573 435.146,217.233 435.080,216.500 435.084 C 215.767 435.088,215.506 435.156,215.921 435.236 M211.417 435.572 C 211.921 435.648,212.746 435.648,213.250 435.572 C 213.754 435.496,213.342 435.433,212.333 435.433 C 211.325 435.433,210.912 435.496,211.417 435.572 M193.762 435.913 C 194.823 435.980,196.473 435.979,197.429 435.912 C 198.385 435.845,197.517 435.791,195.500 435.791 C 193.483 435.792,192.701 435.847,193.762 435.913 M202.596 435.914 C 203.749 435.979,205.549 435.979,206.596 435.913 C 207.643 435.847,206.700 435.793,204.500 435.794 C 202.300 435.795,201.443 435.849,202.596 435.914 M114.667 437.167 C 115.492 437.608,116.317 437.970,116.500 437.970 C 116.683 437.970,116.158 437.608,115.333 437.167 C 114.508 436.725,113.683 436.363,113.500 436.363 C 113.317 436.363,113.842 436.725,114.667 437.167 M284.333 437.333 C 283.692 437.685,283.317 437.972,283.500 437.972 C 283.683 437.972,284.358 437.685,285.000 437.333 C 285.642 436.982,286.017 436.695,285.833 436.695 C 285.650 436.695,284.975 436.982,284.333 437.333 M118.333 438.833 C 118.792 439.095,119.317 439.310,119.500 439.310 C 119.683 439.310,119.458 439.095,119.000 438.833 C 118.542 438.571,118.017 438.357,117.833 438.357 C 117.650 438.357,117.875 438.571,118.333 438.833 M121.333 440.167 C 121.792 440.429,122.317 440.643,122.500 440.643 C 122.683 440.643,122.458 440.429,122.000 440.167 C 121.542 439.905,121.017 439.690,120.833 439.690 C 120.650 439.690,120.875 439.905,121.333 440.167 M278.000 440.167 C 277.542 440.429,277.317 440.643,277.500 440.643 C 277.683 440.643,278.208 440.429,278.667 440.167 C 279.125 439.905,279.350 439.690,279.167 439.690 C 278.983 439.690,278.458 439.905,278.000 440.167 M267.833 444.178 C 267.000 444.580,266.972 444.626,267.667 444.456 C 268.611 444.226,269.673 443.684,269.167 443.692 C 268.983 443.695,268.383 443.913,267.833 444.178 M132.000 444.277 C 132.275 444.447,132.875 444.686,133.333 444.809 C 133.912 444.964,134.014 444.938,133.667 444.723 C 133.392 444.553,132.792 444.314,132.333 444.191 C 131.754 444.036,131.653 444.062,132.000 444.277 M180.587 455.236 C 181.002 455.315,181.602 455.312,181.921 455.229 C 182.239 455.146,181.900 455.080,181.167 455.084 C 180.433 455.088,180.173 455.156,180.587 455.236 M218.587 455.236 C 219.002 455.315,219.602 455.312,219.921 455.229 C 220.239 455.146,219.900 455.080,219.167 455.084 C 218.433 455.088,218.173 455.156,218.587 455.236 M184.250 455.569 C 184.662 455.648,185.338 455.648,185.750 455.569 C 186.162 455.489,185.825 455.424,185.000 455.424 C 184.175 455.424,183.838 455.489,184.250 455.569 M214.088 455.573 C 214.595 455.649,215.345 455.647,215.755 455.568 C 216.165 455.489,215.750 455.426,214.833 455.429 C 213.917 455.431,213.581 455.496,214.088 455.573 M189.750 455.909 C 190.438 455.981,191.563 455.981,192.250 455.909 C 192.938 455.838,192.375 455.779,191.000 455.779 C 189.625 455.779,189.063 455.838,189.750 455.909 M207.750 455.909 C 208.438 455.981,209.563 455.981,210.250 455.909 C 210.938 455.838,210.375 455.779,209.000 455.779 C 207.625 455.779,207.063 455.838,207.750 455.909 " stroke="none" fill="#2cc4a9" fill-rule="evenodd"></path><path id="path2" d="" stroke="none" fill="#31d4b4" fill-rule="evenodd"></path><path id="path3" d="M197.417 56.230 C 197.737 56.314,198.262 56.314,198.583 56.230 C 198.904 56.146,198.642 56.077,198.000 56.077 C 197.358 56.077,197.096 56.146,197.417 56.230 M237.982 140.250 L 236.833 141.500 238.083 140.351 C 239.247 139.282,239.487 139.000,239.232 139.000 C 239.176 139.000,238.614 139.563,237.982 140.250 M224.161 265.500 C 224.161 287.683,224.201 296.807,224.250 285.776 C 224.299 274.744,224.299 256.594,224.250 245.442 C 224.201 234.291,224.161 243.317,224.161 265.500 M0.084 253.500 C 0.088 254.233,0.156 254.494,0.236 254.079 C 0.315 253.665,0.312 253.065,0.229 252.746 C 0.146 252.427,0.080 252.767,0.084 253.500 M399.751 253.833 C 399.754 254.567,399.823 254.827,399.902 254.413 C 399.982 253.998,399.979 253.398,399.896 253.079 C 399.812 252.761,399.747 253.100,399.751 253.833 M399.751 258.167 C 399.754 258.900,399.823 259.161,399.902 258.746 C 399.982 258.331,399.979 257.731,399.896 257.413 C 399.812 257.094,399.747 257.433,399.751 258.167 M0.077 258.333 C 0.077 258.975,0.146 259.237,0.230 258.917 C 0.314 258.596,0.314 258.071,0.230 257.750 C 0.146 257.429,0.077 257.692,0.077 258.333 M224.135 341.500 C 224.135 344.433,224.186 345.589,224.248 344.068 C 224.310 342.546,224.310 340.146,224.247 338.734 C 224.185 337.322,224.135 338.567,224.135 341.500 M68.667 379.438 C 68.667 379.495,69.154 379.983,69.750 380.521 L 70.833 381.500 69.854 380.417 C 68.942 379.407,68.667 379.180,68.667 379.438 M74.667 385.438 C 74.667 385.495,75.154 385.983,75.750 386.521 L 76.833 387.500 75.854 386.417 C 74.942 385.407,74.667 385.180,74.667 385.438 " stroke="none" fill="#34e4c4" fill-rule="evenodd"></path><path id="path4" d="M195.254 56.236 C 195.669 56.315,196.269 56.312,196.587 56.229 C 196.906 56.146,196.567 56.080,195.833 56.084 C 195.100 56.088,194.839 56.156,195.254 56.236 M203.250 56.235 C 203.662 56.315,204.338 56.315,204.750 56.235 C 205.162 56.156,204.825 56.091,204.000 56.091 C 203.175 56.091,202.838 56.156,203.250 56.235 M59.982 113.250 L 58.833 114.500 60.083 113.351 C 61.247 112.282,61.487 112.000,61.232 112.000 C 61.176 112.000,60.614 112.563,59.982 113.250 M56.982 116.250 L 55.833 117.500 57.083 116.351 C 58.247 115.282,58.487 115.000,58.232 115.000 C 58.176 115.000,57.614 115.563,56.982 116.250 M74.146 127.083 L 73.167 128.167 74.250 127.188 C 75.260 126.275,75.487 126.000,75.229 126.000 C 75.172 126.000,74.684 126.487,74.146 127.083 M325.000 126.438 C 325.000 126.495,325.487 126.983,326.083 127.521 L 327.167 128.500 326.188 127.417 C 325.275 126.407,325.000 126.180,325.000 126.438 M328.667 130.167 C 329.289 130.808,329.872 131.333,329.964 131.333 C 330.056 131.333,329.622 130.808,329.000 130.167 C 328.378 129.525,327.794 129.000,327.703 129.000 C 327.611 129.000,328.045 129.525,328.667 130.167 M399.744 251.667 C 399.744 252.308,399.813 252.571,399.896 252.250 C 399.980 251.929,399.980 251.404,399.896 251.083 C 399.813 250.762,399.744 251.025,399.744 251.667 M0.077 260.333 C 0.077 260.975,0.146 261.237,0.230 260.917 C 0.314 260.596,0.314 260.071,0.230 259.750 C 0.146 259.429,0.077 259.692,0.077 260.333 M399.744 260.333 C 399.744 260.975,399.813 261.237,399.896 260.917 C 399.980 260.596,399.980 260.071,399.896 259.750 C 399.813 259.429,399.744 259.692,399.744 260.333 M224.153 321.333 C 224.153 329.308,224.196 332.571,224.250 328.583 C 224.303 324.596,224.303 318.071,224.250 314.083 C 224.196 310.096,224.153 313.358,224.153 321.333 M327.158 383.417 L 324.833 385.833 327.250 383.509 C 329.495 381.350,329.819 381.000,329.574 381.000 C 329.524 381.000,328.436 382.087,327.158 383.417 M72.500 383.333 C 73.589 384.433,74.554 385.333,74.646 385.333 C 74.737 385.333,73.922 384.433,72.833 383.333 C 71.745 382.233,70.779 381.333,70.688 381.333 C 70.596 381.333,71.411 382.233,72.500 383.333 M56.833 395.667 C 57.549 396.400,58.210 397.000,58.302 397.000 C 58.394 397.000,57.883 396.400,57.167 395.667 C 56.451 394.933,55.790 394.333,55.698 394.333 C 55.606 394.333,56.117 394.933,56.833 395.667 M339.649 398.917 L 338.500 400.167 339.750 399.018 C 340.913 397.949,341.153 397.667,340.899 397.667 C 340.843 397.667,340.281 398.229,339.649 398.917 M60.333 399.167 C 60.955 399.808,61.539 400.333,61.631 400.333 C 61.722 400.333,61.289 399.808,60.667 399.167 C 60.045 398.525,59.461 398.000,59.369 398.000 C 59.278 398.000,59.711 398.525,60.333 399.167 M195.250 455.902 C 195.662 455.981,196.338 455.981,196.750 455.902 C 197.162 455.822,196.825 455.757,196.000 455.757 C 195.175 455.757,194.838 455.822,195.250 455.902 M203.250 455.902 C 203.662 455.981,204.338 455.981,204.750 455.902 C 205.162 455.822,204.825 455.757,204.000 455.757 C 203.175 455.757,202.838 455.822,203.250 455.902 " stroke="none" fill="#34dcbe" fill-rule="evenodd"></path></g></svg>